<?xml version="1.0" standalone="no"?><!DOCTYPE svg PUBLIC "-//W3C//DTD SVG 1.1//EN" "http://www.w3.org/Graphics/SVG/1.1/DTD/svg11.dtd"><svg class="icon" width="128px" height="128.00px" viewBox="0 0 1024 1024" version="1.1" xmlns="http://www.w3.org/2000/svg"><path d="M261.898039 961.108497 59.495425 961.108497l0-737.862745 202.402614 0L261.898039 961.108497zM227.258824 260.85098 94.44183 260.85098l0 68 132.816993 0L227.258824 260.85098zM325.011765 61.633987l200.819608 0 0 899.398693L325.011765 961.03268 325.011765 61.633987zM496.175163 96.28366 359.113725 96.28366 359.113725 166.405229l137.060131 0L496.173856 96.28366zM961.453595 900.449673l-192.444444 62.704575L540.402614 261.593464l192.444444-62.704575L961.453595 900.449673zM711.563399 245.376471 585.281046 286.522876l21.067974 64.653595 126.282353-41.146405L711.563399 245.376471z" /></svg>